<svg id="visual" viewBox="0 0 900 600" width="900" height="600" xmlns="http://www.w3.org/2000/svg" xmlns:xlink="http://www.w3.org/1999/xlink" version="1.1"><g stroke-width="1" stroke-linejoin="bevel"><path d="M399 318L360 217L335 311Z" fill="#1d4e6b" stroke="#1d4e6b"></path><path d="M399 318L464 228L360 217Z" fill="#1d4e6b" stroke="#1d4e6b"></path><path d="M427 117L332 165L360 217Z" fill="#00101c" stroke="#00101c"></path><path d="M360 217L161 238L335 311Z" fill="#297ea6" stroke="#297ea6"></path><path d="M188 364L303 386L335 311Z" fill="#19435d" stroke="#19435d"></path><path d="M335 311L303 386L399 318Z" fill="#1d4e6b" stroke="#1d4e6b"></path><path d="M577 317L528 267L530 423Z" fill="#246688" stroke="#246688"></path><path d="M399 318L528 267L464 228Z" fill="#205a7a" stroke="#205a7a"></path><path d="M303 386L372 432L399 318Z" fill="#1d4e6b" stroke="#1d4e6b"></path><path d="M472 92L427 117L464 228Z" fill="#19435d" stroke="#19435d"></path><path d="M464 228L427 117L360 217Z" fill="#0c2435" stroke="#0c2435"></path><path d="M634 166L472 92L464 228Z" fill="#205a7a" stroke="#205a7a"></path><path d="M317 65L211 134L332 165Z" fill="#112e42" stroke="#112e42"></path><path d="M175 337L188 364L335 311Z" fill="#19435d" stroke="#19435d"></path><path d="M337 535L414 502L372 432Z" fill="#0c2435" stroke="#0c2435"></path><path d="M161 238L175 337L335 311Z" fill="#00101c" stroke="#00101c"></path><path d="M530 423L528 267L399 318Z" fill="#246688" stroke="#246688"></path><path d="M528 267L634 166L464 228Z" fill="#081a28" stroke="#081a28"></path><path d="M317 65L332 165L427 117Z" fill="#277297" stroke="#277297"></path><path d="M332 165L161 238L360 217Z" fill="#1d4e6b" stroke="#1d4e6b"></path><path d="M399 0L317 65L427 117Z" fill="#081a28" stroke="#081a28"></path><path d="M211 134L161 238L332 165Z" fill="#297ea6" stroke="#297ea6"></path><path d="M481 468L530 423L399 318Z" fill="#246688" stroke="#246688"></path><path d="M372 432L481 468L399 318Z" fill="#15384f" stroke="#15384f"></path><path d="M337 535L372 432L303 386Z" fill="#1d4e6b" stroke="#1d4e6b"></path><path d="M372 432L414 502L481 468Z" fill="#15384f" stroke="#15384f"></path><path d="M219 503L337 535L303 386Z" fill="#0c2435" stroke="#0c2435"></path><path d="M472 92L399 0L427 117Z" fill="#205a7a" stroke="#205a7a"></path><path d="M317 65L192 0L211 134Z" fill="#246688" stroke="#246688"></path><path d="M188 364L219 503L303 386Z" fill="#246688" stroke="#246688"></path><path d="M116 492L219 503L188 364Z" fill="#205a7a" stroke="#205a7a"></path><path d="M399 0L297 0L317 65Z" fill="#15384f" stroke="#15384f"></path><path d="M668 266L634 166L528 267Z" fill="#0c2435" stroke="#0c2435"></path><path d="M472 92L461 0L399 0Z" fill="#081a28" stroke="#081a28"></path><path d="M161 238L91 313L175 337Z" fill="#112e42" stroke="#112e42"></path><path d="M175 337L63 373L188 364Z" fill="#1d4e6b" stroke="#1d4e6b"></path><path d="M62 226L91 313L161 238Z" fill="#081a28" stroke="#081a28"></path><path d="M62 226L161 238L211 134Z" fill="#277297" stroke="#277297"></path><path d="M589 67L461 0L472 92Z" fill="#112e42" stroke="#112e42"></path><path d="M624 430L668 266L577 317Z" fill="#081a28" stroke="#081a28"></path><path d="M577 317L668 266L528 267Z" fill="#081a28" stroke="#081a28"></path><path d="M634 166L589 67L472 92Z" fill="#00101c" stroke="#00101c"></path><path d="M634 508L624 430L530 423Z" fill="#246688" stroke="#246688"></path><path d="M530 423L624 430L577 317Z" fill="#297ea6" stroke="#297ea6"></path><path d="M634 508L530 423L481 468Z" fill="#205a7a" stroke="#205a7a"></path><path d="M485 600L481 468L414 502Z" fill="#0c2435" stroke="#0c2435"></path><path d="M668 266L670 203L634 166Z" fill="#205a7a" stroke="#205a7a"></path><path d="M675 0L603 0L589 67Z" fill="#19435d" stroke="#19435d"></path><path d="M69 66L62 226L211 134Z" fill="#112e42" stroke="#112e42"></path><path d="M297 0L192 0L317 65Z" fill="#00101c" stroke="#00101c"></path><path d="M0 283L63 373L91 313Z" fill="#297ea6" stroke="#297ea6"></path><path d="M91 313L63 373L175 337Z" fill="#297ea6" stroke="#297ea6"></path><path d="M219 503L328 600L337 535Z" fill="#277297" stroke="#277297"></path><path d="M337 535L434 600L414 502Z" fill="#15384f" stroke="#15384f"></path><path d="M180 600L328 600L219 503Z" fill="#15384f" stroke="#15384f"></path><path d="M328 600L434 600L337 535Z" fill="#205a7a" stroke="#205a7a"></path><path d="M63 373L116 492L188 364Z" fill="#0c2435" stroke="#0c2435"></path><path d="M434 600L485 600L414 502Z" fill="#00101c" stroke="#00101c"></path><path d="M595 600L634 508L481 468Z" fill="#1d4e6b" stroke="#1d4e6b"></path><path d="M624 430L703 438L668 266Z" fill="#246688" stroke="#246688"></path><path d="M700 129L589 67L634 166Z" fill="#277297" stroke="#277297"></path><path d="M589 67L603 0L461 0Z" fill="#277297" stroke="#277297"></path><path d="M670 203L700 129L634 166Z" fill="#112e42" stroke="#112e42"></path><path d="M816 193L700 129L670 203Z" fill="#112e42" stroke="#112e42"></path><path d="M813 285L670 203L668 266Z" fill="#297ea6" stroke="#297ea6"></path><path d="M117 0L69 66L211 134Z" fill="#246688" stroke="#246688"></path><path d="M634 508L703 438L624 430Z" fill="#15384f" stroke="#15384f"></path><path d="M192 0L117 0L211 134Z" fill="#1d4e6b" stroke="#1d4e6b"></path><path d="M62 226L0 283L91 313Z" fill="#246688" stroke="#246688"></path><path d="M63 373L0 413L116 492Z" fill="#297ea6" stroke="#297ea6"></path><path d="M0 216L0 283L62 226Z" fill="#112e42" stroke="#112e42"></path><path d="M0 129L0 216L62 226Z" fill="#277297" stroke="#277297"></path><path d="M116 492L180 600L219 503Z" fill="#081a28" stroke="#081a28"></path><path d="M0 0L0 129L69 66Z" fill="#081a28" stroke="#081a28"></path><path d="M69 66L0 129L62 226Z" fill="#112e42" stroke="#112e42"></path><path d="M485 600L595 600L481 468Z" fill="#1d4e6b" stroke="#1d4e6b"></path><path d="M634 508L733 522L703 438Z" fill="#00101c" stroke="#00101c"></path><path d="M0 283L0 413L63 373Z" fill="#297ea6" stroke="#297ea6"></path><path d="M116 492L70 600L180 600Z" fill="#277297" stroke="#277297"></path><path d="M700 129L675 0L589 67Z" fill="#112e42" stroke="#112e42"></path><path d="M0 413L0 478L116 492Z" fill="#19435d" stroke="#19435d"></path><path d="M725 600L733 522L634 508Z" fill="#19435d" stroke="#19435d"></path><path d="M806 408L813 285L668 266Z" fill="#297ea6" stroke="#297ea6"></path><path d="M806 408L668 266L703 438Z" fill="#205a7a" stroke="#205a7a"></path><path d="M700 129L802 88L675 0Z" fill="#0c2435" stroke="#0c2435"></path><path d="M0 478L70 600L116 492Z" fill="#0c2435" stroke="#0c2435"></path><path d="M813 285L816 193L670 203Z" fill="#0c2435" stroke="#0c2435"></path><path d="M733 522L783 466L703 438Z" fill="#19435d" stroke="#19435d"></path><path d="M783 466L806 408L703 438Z" fill="#00101c" stroke="#00101c"></path><path d="M117 0L0 0L69 66Z" fill="#00101c" stroke="#00101c"></path><path d="M816 193L802 88L700 129Z" fill="#246688" stroke="#246688"></path><path d="M733 522L814 600L783 466Z" fill="#00101c" stroke="#00101c"></path><path d="M595 600L725 600L634 508Z" fill="#1d4e6b" stroke="#1d4e6b"></path><path d="M0 478L0 600L70 600Z" fill="#246688" stroke="#246688"></path><path d="M900 0L801 0L802 88Z" fill="#277297" stroke="#277297"></path><path d="M802 88L801 0L675 0Z" fill="#246688" stroke="#246688"></path><path d="M813 285L900 198L816 193Z" fill="#277297" stroke="#277297"></path><path d="M816 193L900 100L802 88Z" fill="#246688" stroke="#246688"></path><path d="M806 408L900 324L813 285Z" fill="#1d4e6b" stroke="#1d4e6b"></path><path d="M900 435L900 324L806 408Z" fill="#081a28" stroke="#081a28"></path><path d="M900 435L806 408L783 466Z" fill="#15384f" stroke="#15384f"></path><path d="M900 324L900 198L813 285Z" fill="#19435d" stroke="#19435d"></path><path d="M725 600L814 600L733 522Z" fill="#1d4e6b" stroke="#1d4e6b"></path><path d="M900 503L900 435L783 466Z" fill="#00101c" stroke="#00101c"></path><path d="M900 198L900 100L816 193Z" fill="#00101c" stroke="#00101c"></path><path d="M814 600L900 503L783 466Z" fill="#205a7a" stroke="#205a7a"></path><path d="M900 100L900 0L802 88Z" fill="#19435d" stroke="#19435d"></path><path d="M814 600L900 600L900 503Z" fill="#205a7a" stroke="#205a7a"></path></g></svg>